<svg xmlns="http://www.w3.org/2000/svg" viewBox="85 0 86 86"><defs><style>.cls-1{fill:#fff;}.cls-2{fill:#7ab800;}</style></defs><g id="Ebene_2" data-name="Ebene 2"><g id="Ebene_1-2" data-name="Ebene 1"><path class="cls-2" d="M144.51,72.3A38.4,38.4,0,0,0,132.79,0a38.41,38.41,0,0,1,29.37,37.31c0,17.4-11.64,27.71-27.52,31.33C147.51,64.82,157,51.91,157,38,157,21.6,143.71,8.81,128.17,7.2c-1,0-2.21-.26-3.64-.26-21.2,0-39.39,17.76-39.39,39A38.11,38.11,0,0,0,86,54,38.46,38.46,0,0,1,111,13a38.4,38.4,0,0,0,11.72,72.3A38.41,38.41,0,0,1,93.35,48c0-17.4,11.64-27.7,27.52-31.32C108,20.5,98.56,33.41,98.56,47.37c0,16.35,13.27,30.85,33.39,30.85,24.28,0,38.42-17.6,38.42-38.8a38.11,38.11,0,0,0-.86-8,38.46,38.46,0,0,1-25,40.93ZM109.67,43a18,18,0,1,1,18,18A18,18,0,0,1,109.67,43Z"/></g></g></svg>